<?xml version="1.0" encoding="UTF-8"?>
<svg xmlns="http://www.w3.org/2000/svg" xmlns:xlink="http://www.w3.org/1999/xlink" width="16px" height="16px" viewBox="0 0 16 16" version="1.1">
<g id="surface1">
<path style=" stroke:none;fill-rule:nonzero; ;fill-opacity:1;" d="M 11.351562 5.898438 C 10.675781 5.25 9.75 4.875 8.800781 4.875 C 7.800781 4.875 6.800781 4.875 5.773438 4.875 C 5.699219 4.875 5.601562 4.875 5.523438 4.875 C 5.851562 4.550781 6.148438 4.25 6.476562 3.925781 C 6.699219 3.699219 6.699219 3.324219 6.476562 3.125 C 6.25 2.898438 5.875 2.898438 5.675781 3.125 C 5.050781 3.75 4.425781 4.375 3.800781 5 C 3.574219 5.226562 3.574219 5.601562 3.800781 5.800781 C 4.449219 6.449219 5.074219 7.074219 5.75 7.75 C 5.976562 7.976562 6.351562 7.976562 6.550781 7.75 C 6.773438 7.523438 6.773438 7.148438 6.550781 6.949219 C 6.226562 6.625 5.925781 6.324219 5.601562 6 C 6.550781 6 7.449219 6 8.398438 6 C 8.550781 6 8.675781 6 8.824219 6 C 10.351562 6.023438 11.574219 7.425781 11.25 8.949219 C 11.101562 9.699219 10.648438 10.300781 10 10.675781 C 9.449219 10.949219 8.875 10.949219 8.273438 10.949219 C 7.523438 10.949219 7.523438 12.101562 8.273438 12.101562 C 8.875 12.101562 9.449219 12.101562 10.023438 11.898438 C 10.800781 11.625 11.476562 11.074219 11.898438 10.375 C 12.773438 8.949219 12.550781 7.050781 11.351562 5.898438 Z M 11.351562 5.898438 " fill:rgb(0%,0%,0%)/>
</g>
</svg>
