<?xml version="1.0" encoding="UTF-8"?>
<svg xmlns="http://www.w3.org/2000/svg" xmlns:xlink="http://www.w3.org/1999/xlink" width="20px" height="20px" viewBox="0 0 20 20" version="1.1">
<g id="surface1">
<path style=" stroke:none;fill-rule:nonzero;fill:rgb(0%,0%,0%);fill-opacity:1;" d="M 17.5 3.75 L 13.75 3.75 C 13.625 1.703125 12.070312 0 10 0 C 7.929688 0 6.375 1.703125 6.25 3.75 L 2.5 3.75 L 1.25 20 L 18.75 20 Z M 10 1.253906 C 11.382812 1.253906 12.378906 2.390625 12.5 3.75 L 7.5 3.75 C 7.621094 2.390625 8.617188 1.253906 10 1.253906 Z M 3.75 5 L 16.25 5 L 17.503906 18.742188 L 2.492188 18.742188 Z M 6.875 6.25 C 6.183594 6.25 5.625 6.808594 5.625 7.5 C 5.625 8.191406 6.183594 8.75 6.875 8.75 C 7.566406 8.75 8.125 8.191406 8.125 7.5 C 8.125 6.808594 7.566406 6.25 6.875 6.25 Z M 13.125 6.25 C 12.433594 6.25 11.875 6.808594 11.875 7.5 C 11.875 8.191406 12.433594 8.75 13.125 8.75 C 13.816406 8.75 14.375 8.191406 14.375 7.5 C 14.375 6.808594 13.816406 6.25 13.125 6.25 Z M 13.125 6.25 "/>
</g>
</svg>
