<?xml version="1.0" encoding="UTF-8"?>
<svg xmlns="http://www.w3.org/2000/svg" xmlns:xlink="http://www.w3.org/1999/xlink" width="50px" height="50px" viewBox="0 0 50 50" version="1.1">
<g id="surface1">
<path style=" stroke:none;fill-rule:nonzero;fill:rgb(0%,0%,0%);fill-opacity:1;" d="M 43.75 9.375 L 34.375 9.375 C 34.066406 4.253906 30.175781 0 25 0 C 19.824219 0 15.933594 4.253906 15.625 9.375 L 6.25 9.375 L 3.125 50 L 46.875 50 Z M 25 3.136719 C 28.457031 3.136719 30.949219 5.980469 31.25 9.375 L 18.75 9.375 C 19.054688 5.980469 21.539062 3.136719 25 3.136719 Z M 9.375 12.5 L 40.625 12.5 L 43.761719 46.859375 L 6.234375 46.859375 Z M 17.1875 15.625 C 15.460938 15.625 14.0625 17.023438 14.0625 18.75 C 14.0625 20.476562 15.460938 21.875 17.1875 21.875 C 18.914062 21.875 20.3125 20.476562 20.3125 18.75 C 20.3125 17.023438 18.914062 15.625 17.1875 15.625 Z M 32.8125 15.625 C 31.085938 15.625 29.6875 17.023438 29.6875 18.75 C 29.6875 20.476562 31.085938 21.875 32.8125 21.875 C 34.539062 21.875 35.9375 20.476562 35.9375 18.75 C 35.9375 17.023438 34.539062 15.625 32.8125 15.625 Z M 32.8125 15.625 "/>
</g>
</svg>
