<?xml version="1.0" encoding="UTF-8"?>
<svg xmlns="http://www.w3.org/2000/svg" xmlns:xlink="http://www.w3.org/1999/xlink" width="16px" height="16px" viewBox="0 0 16 16" version="1.1">
<g id="surface1">
<path  d="M 7.998047 19.001953 C 9.105469 19.001953 10.001953 18.105469 10.001953 16.998047 C 10.001953 15.896484 9.105469 15 7.998047 15 C 6.896484 15 6 15.896484 6 16.998047 C 6 18.105469 6.896484 19.001953 7.998047 19.001953 Z M 7.998047 19.001953 " transform="matrix(0.666667,0,0,0.666667,0,0)"/>
<path  d="M 18 19.001953 C 19.107422 19.001953 19.998047 18.105469 19.998047 16.998047 C 19.998047 15.896484 19.107422 15 18 15 C 16.892578 15 16.001953 15.896484 16.001953 16.998047 C 16.001953 18.105469 16.892578 19.001953 18 19.001953 Z M 18 19.001953 " transform="matrix(0.666667,0,0,0.666667,0,0)"/>
<path  d="M 10.048828 16.998047 L 15 16.998047 L 15 6.597656 C 15 6.269531 14.730469 6 14.402344 6 L 1.001953 6 " transform="matrix(0.666667,0,0,0.666667,0,0)"/>
<path  d="M 5.648438 16.998047 L 3.597656 16.998047 C 3.269531 16.998047 3 16.728516 3 16.400391 L 3 11.501953 " transform="matrix(0.666667,0,0,0.666667,0,0)"/>
<path  d="M 1.998047 9 L 6 9 " transform="matrix(0.666667,0,0,0.666667,0,0)"/>
<path  d="M 15 9 L 20.607422 9 C 20.847656 9 21.064453 9.140625 21.158203 9.357422 L 22.951172 13.382812 C 22.980469 13.458984 22.998047 13.541016 22.998047 13.628906 L 22.998047 16.400391 C 22.998047 16.728516 22.728516 16.998047 22.400391 16.998047 L 20.501953 16.998047 " transform="matrix(0.666667,0,0,0.666667,0,0)"/>
<path  d="M 15 16.998047 L 16.001953 16.998047 " transform="matrix(0.666667,0,0,0.666667,0,0)"/>
</g>
</svg>
